HIERARCHY
ROOT Hips
{
	OFFSET 0.000000 71.427986 0.000000
	CHANNELS 6 Xposition Yposition Zposition Xrotation Yrotation Zrotation
	JOINT Pelvis
	{
		OFFSET 0.000000 0.000000 0.000000
		CHANNELS 3 Xrotation Yrotation Zrotation
		JOINT LeftUpLeg
		{
			OFFSET 6.797100 -2.508499 -1.318700
			CHANNELS 3 Xrotation Yrotation Zrotation
			JOINT LeftLeg
			{
				OFFSET 0.069008 -29.241863 0.690200
				CHANNELS 3 Xrotation Yrotation Zrotation
				JOINT LeftFoot
				{
					OFFSET -0.069008 -29.568123 -0.266800
					CHANNELS 3 Xrotation Yrotation Zrotation
					JOINT LeftToeBase
					{
						OFFSET 3.145500 -8.631000 16.059900
						CHANNELS 3 Xrotation Yrotation Zrotation
						End Site
						{
							OFFSET 0.000000 18.501587 0.000000
						}
					}
				}
			}
			JOINT Left_ShortSleeve
			{
				OFFSET 0.265923 -10.480953 1.153800
				CHANNELS 3 Xrotation Yrotation Zrotation
				End Site
				{
					OFFSET 1.725763 19.823879 0.000000
				}
			}
		}
		JOINT RightUpLeg
		{
			OFFSET -6.797100 -2.508499 -1.318700
			CHANNELS 3 Xrotation Yrotation Zrotation
			JOINT RightLeg
			{
				OFFSET -0.082453 -29.241932 0.688000
				CHANNELS 3 Xrotation Yrotation Zrotation
				JOINT RightFoot
				{
					OFFSET 0.082453 -29.568058 -0.264600
					CHANNELS 3 Xrotation Yrotation Zrotation
					JOINT RightToeBase
					{
						OFFSET -3.115300 -8.682800 16.113400
						CHANNELS 3 Xrotation Yrotation Zrotation
						End Site
						{
							OFFSET 0.000000 18.567114 0.000000
						}
					}
				}
			}
			JOINT Right_ShortSleeve
			{
				OFFSET -0.265923 -10.480953 1.153800
				CHANNELS 3 Xrotation Yrotation Zrotation
				End Site
				{
					OFFSET -1.725766 19.823910 0.000000
				}
			}
		}
	}
	JOINT Spine
	{
		OFFSET 0.000000 13.368103 0.470500
		CHANNELS 3 Xrotation Yrotation Zrotation
		JOINT Spine1
		{
			OFFSET 0.147000 13.837402 0.538800
			CHANNELS 3 Xrotation Yrotation Zrotation
			JOINT Spine2
			{
				OFFSET 0.168000 16.242897 -1.435500
				CHANNELS 3 Xrotation Yrotation Zrotation
				JOINT Neck
				{
					OFFSET 0.217200 18.631500 -1.679100
					CHANNELS 3 Xrotation Yrotation Zrotation
					JOINT Head
					{
						OFFSET 0.000000 6.599396 1.385900
						CHANNELS 3 Xrotation Yrotation Zrotation
						JOINT Hat
						{
							OFFSET -0.532200 27.220596 -10.096100
							CHANNELS 3 Xrotation Yrotation Zrotation
							End Site
							{
								OFFSET 0.000000 22.029861 0.000000
							}
						}
						JOINT HairD
						{
							OFFSET -10.777400 17.437393 -1.325900
							CHANNELS 3 Xrotation Yrotation Zrotation
							JOINT HairD1
							{
								OFFSET -3.290299 -11.051193 1.062200
								CHANNELS 3 Xrotation Yrotation Zrotation
								End Site
								{
									OFFSET 0.000000 11.579437 0.000000
								}
							}
						}
						JOINT HairB
						{
							OFFSET -10.777400 17.437393 1.467900
							CHANNELS 3 Xrotation Yrotation Zrotation
							JOINT HairB1
							{
								OFFSET -1.561200 -12.956299 3.590200
								CHANNELS 3 Xrotation Yrotation Zrotation
								End Site
								{
									OFFSET 0.000000 13.534866 0.000000
								}
							}
						}
						JOINT HairA
						{
							OFFSET 9.713100 17.437393 1.467900
							CHANNELS 3 Xrotation Yrotation Zrotation
							JOINT HairA1
							{
								OFFSET 1.561200 -12.956299 3.590200
								CHANNELS 3 Xrotation Yrotation Zrotation
								End Site
								{
									OFFSET 0.000000 13.534866 0.000000
								}
							}
						}
						JOINT HairC
						{
							OFFSET 9.713100 17.437393 -1.325900
							CHANNELS 3 Xrotation Yrotation Zrotation
							JOINT HairC1
							{
								OFFSET 3.290300 -11.051193 1.062200
								CHANNELS 3 Xrotation Yrotation Zrotation
								End Site
								{
									OFFSET 0.000000 11.579437 0.000000
								}
							}
						}
					}
				}
				JOINT LeftShoulder
				{
					OFFSET 5.101800 15.108002 -2.763700
					CHANNELS 3 Xrotation Yrotation Zrotation
					JOINT LeftArm
					{
						OFFSET 9.825497 2.506317 -1.597400
						CHANNELS 3 Xrotation Yrotation Zrotation
						JOINT LeftForeArm
						{
							OFFSET 21.966244 0.000000 0.000000
							CHANNELS 3 Xrotation Yrotation Zrotation
							JOINT LeftHand
							{
								OFFSET 33.879036 0.000000 0.000000
								CHANNELS 3 Xrotation Yrotation Zrotation
								JOINT LeftHandThumb1
								{
									OFFSET 6.715286 -2.359680 3.363841
									CHANNELS 3 Xrotation Yrotation Zrotation
									JOINT LeftHandThumb2
									{
										OFFSET 2.507072 -1.447464 1.447461
										CHANNELS 3 Xrotation Yrotation Zrotation
										JOINT LeftHandThumb3
										{
											OFFSET 2.898338 -1.673355 1.673357
											CHANNELS 3 Xrotation Yrotation Zrotation
											End Site
											{
												OFFSET -0.295959 3.727692 -0.131651
											}
										}
									}
								}
								JOINT LeftHandIndex1
								{
									OFFSET 14.190811 -0.254547 3.840278
									CHANNELS 3 Xrotation Yrotation Zrotation
									JOINT LeftHandIndex2
									{
										OFFSET 3.551727 0.000000 -0.000000
										CHANNELS 3 Xrotation Yrotation Zrotation
										JOINT LeftHandIndex3
										{
											OFFSET 2.894196 0.000000 0.000000
											CHANNELS 3 Xrotation Yrotation Zrotation
											End Site
											{
												OFFSET -1.000603 2.690872 0.366626
											}
										}
									}
								}
								JOINT LeftHandMiddle1
								{
									OFFSET 13.776489 0.000000 0.000000
									CHANNELS 3 Xrotation Yrotation Zrotation
									JOINT LeftHandMiddle2
									{
										OFFSET 3.438232 0.000000 0.000000
										CHANNELS 3 Xrotation Yrotation Zrotation
										JOINT LeftHandMiddle3
										{
											OFFSET 3.691551 0.000000 0.000000
											CHANNELS 3 Xrotation Yrotation Zrotation
											End Site
											{
												OFFSET -1.082298 3.499527 0.457670
											}
										}
									}
								}
								JOINT LeftHandRing1
								{
									OFFSET 13.966164 -0.268127 -3.067488
									CHANNELS 3 Xrotation Yrotation Zrotation
									JOINT LeftHandRing2
									{
										OFFSET 3.162567 0.000000 0.000000
										CHANNELS 3 Xrotation Yrotation Zrotation
										JOINT LeftHandRing3
										{
											OFFSET 3.324348 0.000000 0.000000
											CHANNELS 3 Xrotation Yrotation Zrotation
											End Site
											{
												OFFSET -0.861900 3.184998 0.405154
											}
										}
									}
								}
								JOINT LeftHandPinky1
								{
									OFFSET 13.131393 -0.168503 -5.746925
									CHANNELS 3 Xrotation Yrotation Zrotation
									JOINT LeftHandPinky2
									{
										OFFSET 2.849182 0.000000 0.000000
										CHANNELS 3 Xrotation Yrotation Zrotation
										JOINT LeftHandPinky3
										{
											OFFSET 2.805038 0.000000 0.000000
											CHANNELS 3 Xrotation Yrotation Zrotation
											End Site
											{
												OFFSET -0.882500 2.642609 0.325652
											}
										}
									}
								}
							}
							JOINT Left_Sleeve
							{
								OFFSET 6.592125 -0.646545 0.805568
								CHANNELS 3 Xrotation Yrotation Zrotation
								End Site
								{
									OFFSET -0.000179 20.275787 -0.000000
								}
							}
						}
					}
				}
				JOINT RightShoulder
				{
					OFFSET -5.731700 15.108002 -2.763700
					CHANNELS 3 Xrotation Yrotation Zrotation
					JOINT RightArm
					{
						OFFSET -9.825497 2.506317 -1.597400
						CHANNELS 3 Xrotation Yrotation Zrotation
						JOINT RightForeArm
						{
							OFFSET -21.966242 0.000000 0.000000
							CHANNELS 3 Xrotation Yrotation Zrotation
							JOINT RightHand
							{
								OFFSET -33.879032 0.000000 0.000000
								CHANNELS 3 Xrotation Yrotation Zrotation
								JOINT RightHandThumb1
								{
									OFFSET -6.715286 -2.359680 3.363841
									CHANNELS 3 Xrotation Yrotation Zrotation
									JOINT RightHandThumb2
									{
										OFFSET -2.507072 -1.447464 1.447461
										CHANNELS 3 Xrotation Yrotation Zrotation
										JOINT RightHandThumb3
										{
											OFFSET -2.898338 -1.673355 1.673357
											CHANNELS 3 Xrotation Yrotation Zrotation
											End Site
											{
												OFFSET 0.295959 3.727692 -0.131651
											}
										}
									}
								}
								JOINT RightHandIndex1
								{
									OFFSET -14.190811 -0.254547 3.840278
									CHANNELS 3 Xrotation Yrotation Zrotation
									JOINT RightHandIndex2
									{
										OFFSET -3.551727 0.000000 -0.000000
										CHANNELS 3 Xrotation Yrotation Zrotation
										JOINT RightHandIndex3
										{
											OFFSET -2.894196 0.000000 0.000000
											CHANNELS 3 Xrotation Yrotation Zrotation
											End Site
											{
												OFFSET 1.000603 2.690872 0.366626
											}
										}
									}
								}
								JOINT RightHandMiddle1
								{
									OFFSET -13.776489 0.000000 0.000000
									CHANNELS 3 Xrotation Yrotation Zrotation
									JOINT RightHandMiddle2
									{
										OFFSET -3.438232 0.000000 0.000000
										CHANNELS 3 Xrotation Yrotation Zrotation
										JOINT RightHandMiddle3
										{
											OFFSET -3.691551 0.000000 0.000000
											CHANNELS 3 Xrotation Yrotation Zrotation
											End Site
											{
												OFFSET 1.082298 3.499527 0.457670
											}
										}
									}
								}
								JOINT RightHandRing1
								{
									OFFSET -13.966164 -0.268127 -3.067488
									CHANNELS 3 Xrotation Yrotation Zrotation
									JOINT RightHandRing2
									{
										OFFSET -3.162567 0.000000 0.000000
										CHANNELS 3 Xrotation Yrotation Zrotation
										JOINT RightHandRing3
										{
											OFFSET -3.324348 0.000000 0.000000
											CHANNELS 3 Xrotation Yrotation Zrotation
											End Site
											{
												OFFSET 0.861900 3.184998 0.405154
											}
										}
									}
								}
								JOINT RightHandPinky1
								{
									OFFSET -13.131393 -0.168503 -5.746925
									CHANNELS 3 Xrotation Yrotation Zrotation
									JOINT RightHandPinky2
									{
										OFFSET -2.849182 0.000000 0.000000
										CHANNELS 3 Xrotation Yrotation Zrotation
										JOINT RightHandPinky3
										{
											OFFSET -2.805038 0.000000 0.000000
											CHANNELS 3 Xrotation Yrotation Zrotation
											End Site
											{
												OFFSET 0.882500 2.642609 0.325652
											}
										}
									}
								}
							}
							JOINT Right_Sleeve
							{
								OFFSET -6.592125 -0.646545 0.805568
								CHANNELS 3 Xrotation Yrotation Zrotation
								End Site
								{
									OFFSET 0.000179 20.275787 -0.000000
								}
							}
						}
					}
				}
				JOINT Bind_Right_JacketString
				{
					OFFSET -3.534800 11.969597 7.200700
					CHANNELS 3 Xrotation Yrotation Zrotation
					JOINT Bind_Right_JacketString1
					{
						OFFSET -0.319900 -6.102600 2.794100
						CHANNELS 3 Xrotation Yrotation Zrotation
						End Site
						{
							OFFSET 0.000000 6.719452 0.000000
						}
					}
				}
				JOINT Bind_Left_JacketString
				{
					OFFSET 2.904800 11.969597 7.200700
					CHANNELS 3 Xrotation Yrotation Zrotation
					JOINT Bind_Left_JacketString1
					{
						OFFSET 0.364800 -5.904503 3.186800
						CHANNELS 3 Xrotation Yrotation Zrotation
						End Site
						{
							OFFSET 0.000000 6.719513 0.000000
						}
					}
				}
				JOINT HairE
				{
					OFFSET 5.915200 17.612701 -11.592200
					CHANNELS 3 Xrotation Yrotation Zrotation
					JOINT HairE1
					{
						OFFSET 0.289200 -7.171898 -1.284500
						CHANNELS 3 Xrotation Yrotation Zrotation
						End Site
						{
							OFFSET 0.000000 7.291756 0.000000
						}
					}
				}
				JOINT HairF
				{
					OFFSET -0.864800 17.612701 -11.592200
					CHANNELS 3 Xrotation Yrotation Zrotation
					JOINT HairF1
					{
						OFFSET 0.000000 -14.087097 -2.127501
						CHANNELS 3 Xrotation Yrotation Zrotation
						End Site
						{
							OFFSET 0.000000 14.246841 0.000000
						}
					}
				}
				JOINT HairG
				{
					OFFSET -8.087700 17.612701 -11.592200
					CHANNELS 3 Xrotation Yrotation Zrotation
					JOINT HairG1
					{
						OFFSET -0.293600 -6.081398 -0.910100
						CHANNELS 3 Xrotation Yrotation Zrotation
						End Site
						{
							OFFSET 0.000000 6.156120 0.000000
						}
					}
				}
			}
		}
	}
	JOINT Pouch
	{
		OFFSET 0.000000 4.394501 10.847300
		CHANNELS 3 Xrotation Yrotation Zrotation
		End Site
		{
			OFFSET 0.000000 21.880577 0.000000
		}
	}
	JOINT Bag
	{
		OFFSET -13.229000 4.813004 -0.593300
		CHANNELS 3 Xrotation Yrotation Zrotation
		End Site
		{
			OFFSET 0.000000 21.880577 0.000000
		}
	}
	JOINT OccupyGuyFacialAnim_Joint
	{
		OFFSET 1.000000 -70.206398 -1.655000
		CHANNELS 3 Xrotation Yrotation Zrotation
		End Site
		{
			OFFSET 0.000000 21.880577 0.000000
		}
	}
}
MOTION
Frames: 4
Frame Time: 0.033333
6.146772 70.208191 24.895679 -3.075373 104.355831 2.968929 -0.000000 -0.000000 -0.000000 -14.941985 11.115057 15.294959 17.175547 5.688498 1.008689 -2.851384 0.752120 -4.313725 0.000000 -0.000000 0.000001 0.000001 0.000002 -0.000000 -8.962017 -14.528461 -7.021821 20.772613 -9.844294 -0.056688 -11.651217 -1.186400 8.365380 0.000000 -0.000000 -0.000000 -0.000000 -0.000000 -0.000000 16.430459 -2.935516 -0.446996 -4.055979 -3.296494 0.829998 -3.969647 -3.035805 1.230559 11.034815 -26.609480 4.509971 -12.739023 -29.012639 7.839310 -0.000000 0.000002 0.000000 -0.000000 0.000002 0.000000 -0.000000 0.000002 0.000000 -0.000000 0.000002 -0.000000 -0.000000 0.000002 -0.000000 -0.000000 0.000002 -0.000000 -0.000000 0.000002 -0.000000 -0.000000 0.000002 0.000000 -0.000000 0.000002 0.000000 1.850477 1.744171 -12.245751 -7.081041 -17.726542 -65.971937 14.717461 -17.099199 -1.792761 -11.127507 -5.349609 24.059553 1.481060 7.082568 3.140553 7.412480 16.162565 2.500548 -0.000001 0.000002 0.000000 0.218905 -1.849383 -7.389551 -0.054525 0.081592 -6.648828 0.000002 0.000001 -0.000002 0.239838 1.140770 -7.790716 0.009663 0.120629 -24.124592 0.000001 0.000001 -0.000001 0.998794 7.835631 -10.270071 0.003363 0.053617 -26.886252 0.000000 0.000001 -0.000002 1.176707 13.729038 -16.487235 -0.036592 0.023089 -21.074503 0.000002 -0.000002 0.000001 0.000001 -0.000000 -0.000001 1.982788 4.695494 5.346965 9.323227 21.597374 58.204174 15.302209 21.446294 0.372264 -19.838199 -9.146440 -9.569102 -3.434325 -3.760590 -10.824517 8.503322 -16.801745 -1.402420 0.000002 0.000000 0.000003 0.164960 2.604976 1.420249 -0.025952 -0.145494 17.478439 -0.000002 -0.000001 0.000000 -2.046012 0.069606 19.408389 0.103617 -0.323778 27.675319 0.000003 -0.000001 -0.000001 -0.641264 -6.952862 25.929749 -0.017429 -0.212021 39.726084 0.000003 -0.000003 -0.000000 -1.833346 -4.878935 39.698101 0.046045 -0.142771 45.855756 0.000001 0.000001 0.000001 0.000003 0.000000 -0.000001 -0.000000 -0.000000 -0.000000 0.000001 0.000000 -0.000000 -0.000000 -0.000000 0.000000 -0.000000 -0.000000 0.000000 -0.000000 -0.000000 -0.000000 0.000001 0.000000 -0.000000 -0.000000 -0.000000 0.000000 -0.000000 -0.000000 0.000000 -0.000000 -0.000000 -0.000000 0.000001 0.000000 -0.000000 -0.000000 -0.000000 -0.000000 -0.000000 -0.000000 -0.000000 -0.000000 -0.000000 -0.000000 
6.065292 70.202217 24.459921 -3.043887 108.397069 2.734397 -0.000000 -0.000002 0.000000 -15.845883 12.506367 15.736710 16.292279 8.349201 1.187595 -2.290176 0.871068 -5.852804 0.000000 0.000001 0.000000 0.000001 -0.000000 -0.000000 -8.004983 -15.466197 -7.099636 19.976546 -13.046019 0.079116 -11.420956 -1.303148 9.283122 0.000000 0.000000 -0.000000 -0.000001 -0.000000 -0.000000 16.123532 -3.086949 -0.709598 -3.790677 -3.532448 1.091249 -3.685340 -3.228635 1.504537 11.198965 -27.659922 5.261373 -12.308192 -29.949744 7.996418 0.000000 0.000000 -0.000000 0.000000 0.000000 -0.000000 0.000000 0.000000 -0.000000 0.000000 0.000000 -0.000000 -0.000000 0.000004 -0.000000 0.000000 0.000000 -0.000000 -0.000000 0.000004 -0.000000 0.000000 0.000000 -0.000000 0.000000 0.000000 -0.000000 1.852961 1.630910 -11.874142 -6.821069 -16.269263 -66.422736 13.217224 -17.868890 -2.222101 -10.801650 -5.277020 24.767979 1.618389 6.781271 2.812950 7.647919 16.506742 2.420576 -0.000000 -0.000000 0.000001 0.163809 -1.581458 -6.596876 -0.054761 0.084000 -6.111185 0.000002 0.000001 -0.000002 0.122158 1.535268 -6.724382 0.015979 0.139689 -24.102614 -0.000000 0.000002 -0.000001 0.753851 8.623674 -8.979513 0.002984 0.062798 -26.860530 -0.000000 -0.000001 -0.000000 0.871131 14.827366 -15.284232 -0.036059 0.028679 -20.802716 -0.000001 -0.000001 0.000001 0.000002 0.000001 -0.000001 2.013582 4.608306 5.232969 8.055029 21.867757 57.952892 15.478249 21.261496 0.929604 -19.858857 -9.171025 -10.409920 -3.914176 -2.239056 -11.153359 8.690281 -17.289466 -1.520379 0.000000 -0.000001 0.000001 -0.011700 2.946130 1.603131 -0.024841 -0.142877 18.548731 -0.000003 -0.000001 0.000004 -2.188351 0.274313 20.721240 0.097412 -0.318558 29.113254 0.000003 -0.000002 0.000001 -0.374873 -7.047456 27.783164 -0.016194 -0.211267 41.765948 0.000002 -0.000003 0.000001 -1.556187 -4.765690 41.890626 0.048110 -0.140792 48.242630 -0.000002 -0.000004 0.000003 0.000003 0.000001 -0.000001 -0.000000 0.000000 0.000000 -0.000000 0.000000 0.000000 -0.000000 0.000000 0.000000 -0.000000 0.000000 0.000000 -0.000000 0.000000 0.000000 -0.000000 0.000000 0.000000 -0.000000 0.000000 0.000000 -0.000000 0.000000 0.000000 -0.000000 0.000000 0.000000 -0.000000 0.000000 0.000000 -0.000000 -0.000002 0.000000 -0.000000 -0.000002 0.000000 -0.000000 -0.000002 0.000000 
5.881001 70.120453 23.900833 -4.124297 111.846233 3.289122 -0.000000 -0.000000 0.000000 -17.720588 14.108694 16.466447 16.521391 11.400708 1.392175 -2.366634 0.919602 -7.366354 -0.000000 -0.000003 0.000000 0.000001 -0.000004 -0.000001 -7.607060 -15.633301 -6.851110 19.450444 -16.320175 -0.006902 -11.091169 -1.439674 10.438283 0.000000 -0.000000 0.000000 -0.000000 0.000000 -0.000000 15.433762 -2.952144 -0.773903 -3.535284 -3.466655 1.165256 -3.434103 -3.158317 1.548940 11.526048 -28.502103 6.219526 -11.571198 -30.691062 8.390154 -0.000000 -0.000002 0.000000 -0.000000 -0.000002 0.000000 -0.000000 -0.000002 0.000000 -0.000000 -0.000002 0.000000 0.000000 -0.000002 -0.000000 -0.000000 -0.000002 0.000000 0.000000 -0.000002 -0.000000 -0.000000 -0.000002 0.000000 -0.000000 -0.000002 0.000000 1.855391 1.577221 -11.378978 -6.541571 -13.757958 -66.728681 11.638337 -18.723102 -2.953231 -10.387709 -5.244054 24.840454 1.739027 6.508107 2.516611 7.864825 16.818987 2.343076 0.000000 -0.000000 0.000002 0.106360 -1.336768 -5.796166 -0.055074 0.085762 -5.552946 -0.000000 0.000001 -0.000002 0.000852 1.893722 -5.748423 0.022181 0.157270 -24.082591 0.000001 0.000004 -0.000001 0.497127 9.338554 -7.790748 0.002659 0.069268 -26.838103 -0.000002 0.000001 -0.000001 0.548607 15.824561 -14.168486 -0.035683 0.034214 -20.483119 0.000000 -0.000000 -0.000001 0.000002 -0.000002 0.000001 2.041089 4.476645 5.140476 6.682369 22.551108 57.853116 15.662288 20.945219 1.543756 -20.080203 -8.989988 -11.419977 -4.276298 -1.171455 -11.345667 8.806409 -17.621418 -1.614898 -0.000004 0.000000 0.000004 -0.152906 3.189116 1.931837 -0.023850 -0.140171 19.409101 0.000000 -0.000002 0.000003 -2.286812 0.436707 21.793675 0.096351 -0.310163 30.191301 0.000005 -0.000001 -0.000003 -0.156629 -7.037815 29.244309 -0.015247 -0.209099 43.233209 0.000004 -0.000003 -0.000001 -1.343551 -4.601360 43.539703 0.049101 -0.138224 49.948805 -0.000000 -0.000001 -0.000003 0.000000 0.000001 -0.000000 -0.000000 0.000000 0.000000 -0.000000 -0.000001 0.000000 -0.000000 0.000000 0.000000 -0.000000 0.000000 0.000000 -0.000000 0.000000 0.000000 -0.000000 -0.000001 0.000000 -0.000000 0.000000 0.000000 -0.000000 0.000000 0.000000 -0.000000 0.000000 0.000000 -0.000000 -0.000001 0.000000 -0.000000 -0.000000 0.000000 -0.000000 -0.000000 0.000000 -0.000000 -0.000000 0.000000 
5.704157 69.973259 23.101139 -4.800431 115.438735 3.243954 -0.000000 -0.000001 -0.000000 -20.880472 18.082714 17.796840 17.720052 12.865831 1.491365 -3.294299 0.506632 -8.720570 0.000001 0.000001 -0.000000 0.000000 0.000000 -0.000000 -6.980032 -15.541392 -6.564772 19.016910 -19.879932 -0.097158 -10.737741 -1.626445 11.953943 -0.000000 -0.000001 0.000000 0.000001 0.000001 -0.000000 14.463967 -2.909743 -0.479213 -3.118865 -3.391558 0.992181 -3.033019 -3.116684 1.340007 11.668364 -29.061813 7.320445 -10.803776 -31.073987 8.727044 -0.000000 -0.000000 -0.000000 -0.000000 -0.000000 -0.000000 -0.000000 -0.000000 0.000000 -0.000000 -0.000000 -0.000000 -0.000000 -0.000002 -0.000000 -0.000000 -0.000000 -0.000000 -0.000000 -0.000002 -0.000000 -0.000000 -0.000000 -0.000000 -0.000000 -0.000000 -0.000000 1.859594 1.584032 -10.770552 -6.321523 -10.189139 -66.734794 10.242188 -19.382311 -3.936419 -10.145239 -5.351713 24.453517 1.839926 6.264021 2.253486 8.059654 17.096764 2.269529 0.000000 0.000001 0.000002 0.049266 -1.118533 -5.013854 -0.055361 0.086861 -4.993024 0.000002 0.000001 0.000000 -0.118293 2.211912 -4.875354 0.028279 0.173125 -24.064700 -0.000001 0.000003 -0.000002 0.241102 9.971827 -6.720432 0.002198 0.072274 -26.818857 -0.000002 0.000001 0.000000 0.225419 16.708379 -13.158074 -0.035495 0.037528 -20.137385 -0.000000 0.000000 -0.000001 0.000000 0.000001 -0.000000 2.066461 4.305670 5.065725 5.266320 23.545636 57.931506 15.852068 20.529479 2.190021 -20.458307 -8.631946 -12.530744 -4.491968 -0.661282 -11.379527 8.833606 -17.759585 -1.685414 -0.000002 0.000002 0.000006 -0.248951 3.315265 2.415539 -0.023059 -0.137291 19.995039 0.000001 0.000000 0.000002 -2.325859 0.554551 22.551852 0.095308 -0.300978 30.810341 0.000001 -0.000001 -0.000004 -0.013511 -6.907950 30.209367 -0.015006 -0.207087 43.982747 -0.000001 -0.000001 -0.000005 -1.218801 -4.385174 44.508958 0.048977 -0.134820 50.805969 0.000001 0.000003 0.000001 0.000001 0.000000 0.000001 0.000001 0.000000 -0.000000 0.000001 -0.000001 0.000000 0.000001 0.000000 -0.000000 0.000001 0.000000 -0.000000 0.000001 0.000000 -0.000000 0.000001 -0.000001 0.000000 0.000001 0.000000 -0.000000 0.000001 0.000000 -0.000000 0.000001 0.000000 -0.000000 0.000001 -0.000001 0.000000 -0.000000 -0.000001 -0.000000 -0.000000 -0.000001 -0.000000 -0.000000 -0.000001 -0.000000 
